<svg viewBox="-2.0270270270270268 -1.9000000000000004 104.86486486486487 103.95" version="1.1" xmlns="http://www.w3.org/2000/svg" style="max-height: 500px" width="104.86486486486487" height="103.95">
 <path d="m49.984 0.0039062c-27.574 0-49.984 22.434-49.984 50.008s22.41 49.984 49.984 49.984 50.016-22.41 50.016-49.984-22.441-50.008-50.016-50.008zm0 6.25c24.199 0 43.758 19.562 43.758 43.758 0 24.199-19.562 43.734-43.758 43.734-24.199 0-43.73-19.539-43.73-43.734 0-24.199 19.531-43.758 43.73-43.758zm0 15.18v-0.003906c-1.7148 0.007812-3.1055 1.3984-3.1133 3.1133v22.332h-22.324c-0.83203-0.003906-1.6328 0.32812-2.2227 0.91406-0.58984 0.58984-0.91797 1.3906-0.91406 2.2227 0.007813 1.7266 1.4102 3.1211 3.1367 3.1133h22.324v22.332c0.007812 1.7148 1.3984 3.1055 3.1133 3.1133 0.83203 0.003907 1.6289-0.32031 2.2188-0.90625 0.58984-0.58203 0.92188-1.3789 0.92578-2.207v-22.332h22.324c1.7148-0.007812 3.1055-1.3984 3.1133-3.1133 0.003906-0.82812-0.32422-1.625-0.90625-2.2109-0.58594-0.58984-1.3789-0.92188-2.207-0.92578h-22.324v-22.332c-0.003906-0.82812-0.33594-1.625-0.92578-2.207-0.58984-0.58594-1.3867-0.91016-2.2188-0.90625z"/>
<text fill="#000000" font-family="Arbeit Regular, Helvetica, Arial-Unicode, Arial, Sans-serif" font-weight="bold" font-size="5.0" y="117.5" x="0.0">Created by Alzam</text><text fill="#000000" font-family="Arbeit Regular, Helvetica, Arial-Unicode, Arial, Sans-serif" font-weight="bold" font-size="5.0" y="122.5" x="0.0">from Noun Project</text></svg>