<svg width="75" height="90" viewBox="0 0 75 90" fill="none" xmlns="http://www.w3.org/2000/svg">
<path d="M72.6059 57.59L42.7059 87.51C42.0109 88.2078 41.185 88.7616 40.2755 89.1394C39.3659 89.5172 38.3908 89.7117 37.4059 89.7117C36.421 89.7117 35.4458 89.5172 34.5363 89.1394C33.6268 88.7616 32.8009 88.2078 32.1059 87.51L2.20589 57.59C1.15576 56.547 0.439147 55.2155 0.146984 53.7645C-0.145179 52.3136 0.000277817 50.8085 0.564899 49.4404C1.12952 48.0722 2.08785 46.9026 3.31829 46.08C4.54873 45.2574 5.9958 44.8188 7.47589 44.82C8.46154 44.8137 9.43845 45.0051 10.3488 45.383C11.2592 45.7609 12.0845 46.3175 12.7759 47.02L29.9859 64.23V7.42C29.9859 5.45209 30.7676 3.56479 32.1592 2.17327C33.5507 0.781748 35.438 0 37.4059 0C39.3738 0 41.2611 0.781748 42.6526 2.17327C44.0441 3.56479 44.8259 5.45209 44.8259 7.42V64.23L62.0359 47.02C62.7273 46.3175 63.5526 45.7609 64.463 45.383C65.3733 45.0051 66.3502 44.8137 67.3359 44.82C68.816 44.8188 70.2631 45.2574 71.4935 46.08C72.7239 46.9026 73.6823 48.0722 74.2469 49.4404C74.8115 50.8085 74.957 52.3136 74.6648 53.7645C74.3726 55.2155 73.656 56.547 72.6059 57.59Z" fill="black"/>
</svg>
