<svg width="84" height="99" viewBox="0 0 84 99" fill="none" xmlns="http://www.w3.org/2000/svg">
<g clip-path="url(#clip0_95_41)">
<path d="M76.95 60.77L47.05 90.69C46.355 91.3878 45.5291 91.9415 44.6196 92.3194C43.7101 92.6972 42.7349 92.8917 41.75 92.8917C40.7651 92.8917 39.79 92.6972 38.8804 92.3194C37.9709 91.9415 37.145 91.3878 36.45 90.69L6.55001 60.77C5.49988 59.727 4.78326 58.3955 4.4911 56.9445C4.19894 55.4936 4.34439 53.9885 4.90902 52.6203C5.47364 51.2522 6.43197 50.0826 7.66241 49.26C8.89284 48.4374 10.3399 47.9988 11.82 48C12.8057 47.9937 13.7826 48.1851 14.6929 48.563C15.6033 48.9409 16.4286 49.4975 17.12 50.2L34.33 67.41V10.6C34.33 8.63209 35.1118 6.74478 36.5033 5.35326C37.8948 3.96174 39.7821 3.17999 41.75 3.17999C43.7179 3.17999 45.6052 3.96174 46.9967 5.35326C48.3883 6.74478 49.17 8.63209 49.17 10.6V67.41L66.38 50.2C67.0714 49.4975 67.8967 48.9409 68.8071 48.563C69.7174 48.1851 70.6944 47.9937 71.68 48C73.1601 47.9988 74.6072 48.4374 75.8376 49.26C77.068 50.0826 78.0264 51.2522 78.591 52.6203C79.1556 53.9885 79.3011 55.4936 79.0089 56.9445C78.7168 58.3955 78.0001 59.727 76.95 60.77Z" fill="#00C9A5"/>
</g>
<defs>
<clipPath id="clip0_95_41">
<rect width="83.5" height="99" fill="white"/>
</clipPath>
</defs>
</svg>
