<svg y="0px" x="0px" viewBox="0.05923076923076923 0 32.51769230769231 24.30275" xmlns="http://www.w3.org/2000/svg" style="max-height: 500px" width="32.51769230769231" height="24.30275"><defs><style>.cls-1{fill:#000000;}</style></defs><title>Fichier 1029</title><g data-name="Calque 2"><g data-name="Calque 2"><path d="M1.53,15.15l11.08,8a2.51,2.51,0,0,0,3,0,4.07,4.07,0,0,0,1.52-3.3v-4H28.39a2.41,2.41,0,0,0,.88-.16,4,4,0,0,0,2.3-3.84A4,4,0,0,0,29.27,8a2.41,2.41,0,0,0-.88-.16H17.15v-4A4.06,4.06,0,0,0,15.63.51a2.49,2.49,0,0,0-3,0l-11.08,8A4.1,4.1,0,0,0,0,11.85,4.09,4.09,0,0,0,1.53,15.15Z" class="cls-1"/></g></g><text font-family="'Helvetica Neue', Helvetica, Arial-Unicode, Arial, Sans-serif" font-weight="bold" font-size="5px" fill="#000000" y="38.71" x="0">Created by Poups</text><text font-family="'Helvetica Neue', Helvetica, Arial-Unicode, Arial, Sans-serif" font-weight="bold" font-size="5px" fill="#000000" y="43.71" x="0">from the Noun Project</text></svg>