<svg viewBox="-2.2972972972972974 -2.4399999999999995 104.86486486486487 97.74" version="1.1" xmlns="http://www.w3.org/2000/svg" style="max-height: 500px" width="104.86486486486487" height="97.74">
 <path fill-rule="evenodd" d="m26.527 79.387c-1.2031 1.2031-7.6562 7.9219-8.4648 8.3242-0.73828 0.36719-1.6211 0.21875-2.207-0.36328l-7.9609-7.9609 2.7148-2.7148 4.6836 4.6836v-67.367c0-2.5273 3.8398-2.5273 3.8398 0v67.363l4.6836-4.6836zm8.4883-12.523h27.105c0.52734 0 0.96094 0.42969 0.96094 0.96094v5.7617c0 0.52734-0.42969 0.96094-0.96094 0.96094h-27.105c-0.52734 0-0.96094-0.42969-0.96094-0.96094v-5.7617c0-0.52734 0.42969-0.96094 0.96094-0.96094zm0-16.023h36.781c0.52734 0 0.96094 0.42969 0.96094 0.96094v5.7617c0 0.52734-0.42969 0.96094-0.96094 0.96094l-36.781-0.003907c-0.52734 0-0.96094-0.42969-0.96094-0.96094v-5.7617c0-0.52734 0.42969-0.95703 0.96094-0.95703zm0-16.027h46.453c0.52734 0 0.96094 0.42969 0.96094 0.96094v5.7617c0 0.52734-0.42969 0.96094-0.96094 0.96094l-46.453-0.003906c-0.52734 0-0.96094-0.42969-0.96094-0.96094v-5.7617c0-0.52734 0.42969-0.95703 0.96094-0.95703zm0-16.027h56.133c0.52734 0 0.96094 0.42969 0.96094 0.96094v5.7617c0 0.52734-0.42969 0.96094-0.96094 0.96094l-56.133-0.003906c-0.52734 0-0.96094-0.42969-0.96094-0.96094v-5.7617c0-0.52734 0.42969-0.95703 0.96094-0.95703z"/>
<text fill="#000000" font-family="Arbeit Regular, Helvetica, Arial-Unicode, Arial, Sans-serif" font-weight="bold" font-size="5.0" y="117.5" x="0.0">Created by Design Queen</text><text fill="#000000" font-family="Arbeit Regular, Helvetica, Arial-Unicode, Arial, Sans-serif" font-weight="bold" font-size="5.0" y="122.5" x="0.0">from Noun Project</text></svg>