<svg width="75" height="90" viewBox="0 0 75 90" fill="none" xmlns="http://www.w3.org/2000/svg">
<path d="M2.13975 32.5617L31.6617 2.26866C32.3479 1.56215 33.1668 0.99811 34.0715 0.608893C34.9762 0.219676 35.9488 0.0129464 36.9336 0.000579994C37.9184 -0.0117865 38.896 0.170453 39.8102 0.53683C40.7243 0.903207 41.5572 1.44651 42.2609 2.13556L72.5342 31.6778C73.5973 32.7075 74.3306 34.0299 74.641 35.4771C74.9513 36.9243 74.8248 38.431 74.2774 39.8062C73.73 41.1813 72.7864 42.3628 71.5664 43.2008C70.3464 44.0388 68.9049 44.4955 67.425 44.5129C66.4395 44.5317 65.4602 44.3525 64.5452 43.9861C63.6302 43.6197 62.7979 43.0734 62.0978 42.3797L44.673 25.3871L45.3863 82.1926C45.4111 84.1604 44.6531 86.0574 43.2791 87.4662C41.9052 88.8751 40.0279 89.6805 38.0601 89.7052C36.0923 89.7299 34.1954 88.9719 32.7865 87.598C31.3776 86.2241 30.5722 84.3467 30.5475 82.379L29.8342 25.5734L12.8416 42.9982C12.1591 43.7093 11.3408 44.2763 10.4353 44.6656C9.52976 45.0548 8.55533 45.2585 7.56968 45.2646C6.08972 45.2843 4.63725 44.864 3.39658 44.0569C2.15592 43.2498 1.18298 42.0923 0.60122 40.7313C0.0194638 39.3704 -0.144888 37.8673 0.129033 36.4128C0.402955 34.9582 1.1028 33.6179 2.13975 32.5617Z" fill="#00C9A5"/>
</svg>
