<svg width="75" height="90" viewBox="0 0 75 90" fill="none" xmlns="http://www.w3.org/2000/svg">
<path d="M2.15737 32.4444L31.781 2.25068C32.4695 1.54648 33.2903 0.985196 34.1963 0.599021C35.1023 0.212846 36.0757 0.00938707 37.0605 0.000330081C38.0453 -0.00872691 39.0222 0.176797 39.9352 0.546244C40.8481 0.915691 41.6791 1.46179 42.3805 2.1532L72.5544 31.797C73.6141 32.8303 74.3429 34.1551 74.6484 35.6033C74.9539 37.0516 74.8223 38.5579 74.2703 39.9312C73.7182 41.3045 72.7707 42.4828 71.5479 43.3167C70.3251 44.1506 68.8821 44.6025 67.4021 44.6149C66.4165 44.6303 65.4379 44.4479 64.5241 44.0784C63.6103 43.7089 62.7799 43.1598 62.082 42.4637L44.7145 25.4127L45.2369 82.2203C45.255 84.1881 44.4907 86.0826 43.112 87.4868C41.7333 88.8911 39.8533 89.6901 37.8855 89.7082C35.9177 89.7263 34.0232 88.962 32.619 87.5833C31.2147 86.2047 30.4157 84.3246 30.3976 82.3568L29.8751 25.5492L12.8241 42.9167C12.1392 43.6255 11.319 44.1898 10.4122 44.576C9.50535 44.9622 8.53025 45.1627 7.54458 45.1654C6.06456 45.1802 4.61352 44.7549 3.37557 43.9437C2.13762 43.1324 1.16857 41.9717 0.591393 40.6088C0.0142142 39.2459 -0.145085 37.7422 0.133722 36.2886C0.41253 34.835 1.11688 33.497 2.15737 32.4444Z" fill="black"/>
</svg>
