<svg y="0px" x="0px" viewBox="4.48 19.84 119.04 88.64000000000001" data-name="Layer 2" xmlns="http://www.w3.org/2000/svg" style="max-height: 500px" width="119.04" height="88.64000000000001"><path d="M109.17,29.58v-5.43c0-.87-.74-1.55-1.58-1.5l-37.99,1.96c-2.31,.12-4.32,1.27-5.61,3-1.29-1.72-3.3-2.88-5.61-3l-37.99-1.96c-.82-.05-1.58,.62-1.58,1.5v5.43l-8.26-.34c-.83-.04-1.56,.63-1.56,1.5V101.67c0,.8,.63,1.46,1.43,1.5l47.04,2.18c2.69,0,5.07-1.34,6.53-3.37,1.47,2.05,3.87,3.37,6.59,3.37l46.97-2.18c.8-.04,1.43-.7,1.43-1.5,0-71.99,.26-71.32-.46-72.01-.62-.6-.4-.45-9.37-.08Zm-43.64,68.08l42.22-2.18c.8-.04,1.42-.7,1.42-1.5V32.58l6.83-.28V100.24l-45.47,2.11c-2.66,0-4.82-2.08-4.99-4.69Zm-7.99,4.69l-45.54-2.12V32.3l6.83,.28v61.4c0,.8,.62,1.46,1.42,1.5l42.22,2.18c-.17,2.61-2.33,4.69-4.92,4.69ZM21.83,25.73l36.41,1.88c2.44,.13,4.27,2.17,4.27,4.49v62.56l-40.67-2.1V25.73Zm84.35,0V92.56l-40.67,2.1c0-63.29-.04-62.6,.07-63.3,.34-2.05,2.05-3.64,4.19-3.75l36.41-1.88Z"/><path d="M27.93,35.31l28.57,1.47c1.37,0,2.03-1.7,.99-2.62-.62-.55,.02-.33-29.41-1.85-1.98-.1-2.14,2.89-.15,3Z"/><path d="M27.93,44.36l28.57,1.47c1.93,0,2.01-2.9,.08-3l-28.49-1.47c-1.98-.11-2.14,2.89-.15,3Z"/><path d="M27.93,53.41l28.57,1.47c1.93,0,2.01-2.9,.08-3l-28.49-1.47c-1.98-.11-2.14,2.89-.15,3Z"/><path d="M27.93,62.46l28.57,1.47c1.93,0,2.01-2.9,.08-3l-28.49-1.47c-1.98-.11-2.14,2.89-.15,3Z"/><path d="M27.93,71.51l28.57,1.47c1.93,0,2.01-2.9,.08-3l-28.49-1.47c-1.98-.12-2.14,2.89-.15,3Z"/><path d="M56.58,79.03l-8.6-.44c-1.97-.13-2.15,2.89-.15,3l8.6,.44c1.98,.11,2.14-2.89,.15-3Z"/><path d="M71.5,36.78l28.57-1.47c1.21-.06,1.83-1.45,1.13-2.4-.72-.97-.04-.66-29.78,.87-1.92,.1-1.86,3,.08,3Z"/><path d="M71.5,45.83l28.57-1.47c1.98-.1,1.83-3.1-.15-3l-28.49,1.47c-1.93,.1-1.86,3,.08,3Z"/><path d="M71.5,54.88l28.57-1.47c1.98-.1,1.83-3.11-.15-3l-28.49,1.47c-1.93,.1-1.86,3,.08,3Z"/><path d="M71.5,63.93l28.57-1.47c1.98-.1,1.83-3.11-.15-3l-28.49,1.47c-1.93,.1-1.86,3,.08,3Z"/><path d="M71.5,72.98l28.57-1.47c1.98-.1,1.83-3.11-.15-3l-28.49,1.47c-1.93,.1-1.86,3,.08,3Z"/><path d="M71.5,82.03l28.57-1.47c1.99-.1,1.82-3.12-.15-3l-28.49,1.47c-1.93,.1-1.86,3,.08,3Z"/><text font-family="'Helvetica Neue', Helvetica, Arial-Unicode, Arial, Sans-serif" font-weight="bold" font-size="5px" fill="#000000" y="143" x="0">Created by cheed</text><text font-family="'Helvetica Neue', Helvetica, Arial-Unicode, Arial, Sans-serif" font-weight="bold" font-size="5px" fill="#000000" y="148" x="0">from the Noun Project</text></svg>