<svg viewBox="0.6756756756756754 0.2599999999999998 100.8108108108108 101.25" version="1.1" xmlns="http://www.w3.org/2000/svg" style="max-height: 500px" width="100.8108108108108" height="101.25">
 <path d="m91.172 45.172c-2.3398 0-4.3008 1.6797-4.7305 3.8906l-33.941-0.003906v-7.7383h19.148c0.30078 0 0.57031-0.14062 0.75-0.37891l10.238-13.711c0.62891 0.30078 1.3281 0.48828 2.0703 0.48828 2.6602 0 4.8281-2.1719 4.8281-4.8281 0-2.6602-2.1719-4.8281-4.8281-4.8281-2.6602 0-4.8281 2.1719-4.8281 4.8281 0 1.2383 0.48047 2.3594 1.2617 3.2188l-9.9609 13.34h-18.68v-7.7383h11.602c0.51953 0 0.94141-0.42188 0.94141-0.94141l-0.003907-13.449c2.2109-0.44141 3.8906-2.3906 3.8906-4.7305 0-2.6602-2.1719-4.8281-4.8281-4.8281-2.6602 0-4.8281 2.1719-4.8281 4.8281 0 2.3398 1.6797 4.3008 3.8906 4.7305v12.512l-10.664-0.003906v-13.969c0-6.5391-5.3203-11.859-11.859-11.859-5.4414 0-10.039 3.6797-11.43 8.6797-4.1484-0.75-8.3789 0.69141-11.211 3.8984-2.1602 2.4492-3.2305 5.5898-3 8.8516 0.078125 1.0703 0.28906 2.1094 0.62891 3.0898-6.9883 2.9688-11.629 9.9219-11.629 17.57 0 7.9492 4.8594 14.969 12.199 17.801-0.53125 1-0.92969 2.0703-1.1992 3.1914-0.92969 3.8711-0.14062 7.9492 2.1719 11.191 2.3594 3.3008 6.0312 5.3906 10.07 5.7188 0.51172 0.039062 1.0117 0.050781 1.5117 0.039062-0.019531 2.9688 1.0781 5.8711 3.0898 8.0898 2.2578 2.4688 5.457 3.8789 8.7852 3.8789 6.5391 0 11.871-5.3203 11.871-11.871v-13.957h8.7812v12.512c-2.2109 0.44141-3.8906 2.3906-3.8906 4.7305 0 2.6602 2.1719 4.8281 4.8281 4.8281 2.6602 0 4.8281-2.1719 4.8281-4.8281 0-2.3398-1.6797-4.3008-3.8906-4.7305l0.003906-13.453c0-0.51953-0.42188-0.94141-0.94141-0.94141h-9.7188v-7.7383h18.84l7.7812 6.0508v6.7617c-2.2109 0.44141-3.8906 2.3906-3.8906 4.7305 0 2.6602 2.1719 4.8281 4.8281 4.8281 2.6602 0 4.8281-2.1719 4.8281-4.8281 0-2.3398-1.6797-4.3008-3.8906-4.7305v-7.2188c0-0.28906-0.12891-0.55859-0.35938-0.73828l-8.3984-6.5312c-0.16016-0.12891-0.37109-0.19922-0.57812-0.19922l-19.16-0.003906v-7.7383h33.93c0.44141 2.2109 2.3906 3.8906 4.7305 3.8906 2.6602 0 4.8281-2.1719 4.8281-4.8281 0-2.668-2.1602-4.8242-4.8164-4.8242zm-6.4609-25.242c1.6289 0 2.9492 1.3203 2.9492 2.9492s-1.3203 2.9492-2.9492 2.9492c-1.6289 0-2.9492-1.3203-2.9492-2.9492s1.3281-2.9492 2.9492-2.9492zm-23.57-7.3398c0-1.6289 1.3203-2.9492 2.9492-2.9492s2.9492 1.3203 2.9492 2.9492-1.3203 2.9492-2.9492 2.9492-2.9492-1.3281-2.9492-2.9492zm4.0312 74.82c0 1.6289-1.3203 2.9492-2.9492 2.9492s-2.9492-1.3203-2.9492-2.9492 1.3203-2.9492 2.9492-2.9492 2.9492 1.3281 2.9492 2.9492zm17.848-9.3086c0 1.6289-1.3203 2.9492-2.9492 2.9492-1.6289 0-2.9492-1.3203-2.9492-2.9492 0-1.6289 1.3203-2.9492 2.9492-2.9492 1.6289-0.003906 2.9492 1.3164 2.9492 2.9492zm-51.539-8.3516c0.37109 0.37109 0.96094 0.37109 1.3281 0 1.4297-1.4297 5.8086-2.5312 10.012-0.78906 5.0312 2.0781 7.8008 7.4688 7.8008 15.172 0 5.5117-4.4805 9.9883-9.9883 9.9883-2.8086 0-5.5-1.1914-7.3789-3.2617-1.7383-1.9102-2.6719-4.4297-2.6016-7 2.8008-0.46875 5.4219-1.8008 7.4688-3.8516 0.37109-0.37109 0.37109-0.96094 0-1.3281-0.37109-0.37109-0.96094-0.37109-1.3281 0-2.4688 2.4805-5.8906 3.7305-9.3789 3.4414-3.4883-0.28906-6.6602-2.0898-8.6992-4.9414-1.9883-2.7891-2.6797-6.3086-1.8789-9.6602 0.80078-3.3516 3.0117-6.1797 6.0703-7.7812 1.6992-0.89062 3.5508-1.3398 5.4805-1.3398 0.51953 0 0.94141-0.42188 0.94141-0.94141s-0.42188-0.94141-0.94141-0.94141c-2.2109 0-4.3984 0.53906-6.3516 1.5508-1.9297 1.0117-3.5781 2.4492-4.8203 4.1797-6.8008-2.4609-11.328-8.8789-11.328-16.172 0-6.8984 4.1914-13.172 10.5-15.84 0.71094 1.3281 1.6602 2.5312 2.8516 3.5391 1.3281 1.1289 2.8516 1.9492 4.5195 2.4219 0.5 0.14063 1.0195-0.14844 1.1602-0.64062 0.14062-0.5-0.14844-1.0195-0.64062-1.1602-1.4102-0.39844-2.6914-1.0898-3.8086-2.0508-2.1016-1.7891-3.3711-4.3008-3.5586-7.0586-0.19141-2.75 0.69922-5.4102 2.5312-7.4805 2.3906-2.6992 5.9492-3.9297 9.4492-3.3008-0.050781 0.44141-0.070313 0.87891-0.070313 1.3281 0 3.7305 1.6992 7.1602 4.6602 9.4297 0.41016 0.32031 1 0.23828 1.3203-0.17969 0.32031-0.42188 0.23828-1-0.17969-1.3203-2.4883-1.9102-3.9297-4.8008-3.9297-7.9414 0-5.5 4.4805-9.9805 9.9805-9.9805s9.9805 4.4805 9.9805 9.9805v58.422c-1.9414-4.2305-4.9609-6.1797-7.0781-7.0586-4.75-1.9688-9.9609-0.91016-12.059 1.1992-0.40625 0.40625-0.40625 0.99609-0.035156 1.3672zm59.691-16.801c-1.6289 0-2.9492-1.3203-2.9492-2.9492s1.3203-2.9492 2.9492-2.9492 2.9492 1.3203 2.9492 2.9492-1.3203 2.9492-2.9492 2.9492zm-68.371-4.5508c-1.1289 0-2.3516-0.070313-3.6992-0.21875-0.51953-0.058594-0.87891-0.51953-0.82812-1.0391 0.058593-0.51953 0.51953-0.89062 1.0391-0.82812 7.4883 0.85938 12.32-0.94922 13.602-5.0781 1.1211-3.6094-0.75-7.6719-2.1484-8.4102-0.46094-0.23828-0.62891-0.80859-0.39062-1.2695 0.23828-0.46094 0.80859-0.62891 1.2695-0.39063 1.9297 1.0195 3.5 4.4102 3.4688 7.8281 5.5391 1.25 9.3594 6.1016 9.3789 12.078 0 0.51953-0.42188 0.94141-0.94141 0.94141s-0.94141-0.42188-0.94141-0.94141c-0.011719-5.0781-3.0586-9.0703-7.6797-10.211-0.058594 0.30859-0.12891 0.62109-0.23047 0.92188-0.78906 2.6094-3.4102 6.6172-11.898 6.6172zm17.93-31.617c-0.37891-0.35156-0.41016-0.94141-0.058594-1.3281 0.35156-0.37891 0.94141-0.41016 1.3281-0.058594 0.21094 0.19141 5.0391 4.7617 1.3906 13.828-0.14844 0.37109-0.5 0.58984-0.87109 0.58984-0.12109 0-0.23828-0.019531-0.35156-0.070312-0.48047-0.19141-0.71094-0.73828-0.51953-1.2188 3.1719-7.875-0.87891-11.703-0.91797-11.742z"/>
<text fill="#000000" font-family="Arbeit Regular, Helvetica, Arial-Unicode, Arial, Sans-serif" font-weight="bold" font-size="5.0" y="117.5" x="0.0">Created by Merlin</text><text fill="#000000" font-family="Arbeit Regular, Helvetica, Arial-Unicode, Arial, Sans-serif" font-weight="bold" font-size="5.0" y="122.5" x="0.0">from Noun Project</text></svg>