<svg y="0px" x="0px" viewBox="5.25 9.5 93.5 74.25" data-name="Layer 1" xmlns="http://www.w3.org/2000/svg" style="max-height: 500px" width="93.5" height="74.25"><title>Artboard 5</title><path d="M35.43,55.71A5.71,5.71,0,1,1,41.14,50,5.71,5.71,0,0,1,35.43,55.71Zm0-9.42A3.71,3.71,0,1,0,39.14,50,3.72,3.72,0,0,0,35.43,46.29Z"/><path d="M50.72,55.71A5.71,5.71,0,1,1,56.43,50,5.71,5.71,0,0,1,50.72,55.71Zm0-9.42A3.71,3.71,0,1,0,54.43,50,3.71,3.71,0,0,0,50.72,46.29Z"/><path d="M66,55.71A5.71,5.71,0,1,1,71.71,50,5.71,5.71,0,0,1,66,55.71Zm0-9.42A3.71,3.71,0,1,0,69.71,50,3.72,3.72,0,0,0,66,46.29Z"/><text font-family="'Helvetica Neue', Helvetica, Arial-Unicode, Arial, Sans-serif" font-weight="bold" font-size="5px" fill="#000000" y="115" x="0">Created by Robbe de Clerck</text><text font-family="'Helvetica Neue', Helvetica, Arial-Unicode, Arial, Sans-serif" font-weight="bold" font-size="5px" fill="#000000" y="120" x="0">from the Noun Project</text></svg>