<svg viewBox="3.648648648648649 -2.17 98.91891891891892 105.03" version="1.1" xmlns="http://www.w3.org/2000/svg" style="max-height: 500px" width="98.91891891891892" height="105.03">
 <path d="m79.828 11.824 0.98828-1.7148c1.0117-1.7656 0.41016-4.0195-1.3555-5.043l-5.418-3.1289c-1.7695-1.0195-4.0273-0.41406-5.0508 1.3516l-1.0234 1.7773c-1.4688-0.37891-3.0117 0.24609-3.8047 1.5391l-43.242 70.141-0.015625 0.03125c-0.015625 0.027344-0.03125 0.054687-0.042969 0.082031l-0.023437 0.050781c-0.011719 0.027344-0.023438 0.058594-0.035156 0.085938-0.011719 0.027344-0.011719 0.03125-0.015626 0.050781-0.011718 0.035156-0.019531 0.070313-0.027343 0.10156l-0.007813 0.035156h-0.007812c-0.011719 0.050781-0.019532 0.10156-0.023438 0.15234l-2.0273 19.707c-0.054687 0.52344 0.19531 1.0312 0.64453 1.3086 0.44531 0.27734 1.0117 0.27734 1.457-0.003906l16.398-10.316 0.007813-0.003906c0.042969-0.027344 0.082031-0.054688 0.12109-0.085938l0.015625-0.011718c0.03125-0.027344 0.0625-0.054688 0.09375-0.085938l0.035156-0.035156c0.023438-0.023438 0.046875-0.050782 0.066406-0.078125l0.03125-0.039063c0.023438-0.027344 0.042969-0.058594 0.0625-0.089844l0.015625-0.023437 42.922-71.316-0.003906-0.003907c0.87891-1.457 0.56641-3.3359-0.73438-4.4336zm-8.4531-7.1562c0.26562-0.44922 0.83984-0.60547 1.293-0.34766l5.4219 3.1289h-0.003906c0.44922 0.26172 0.60547 0.83984 0.34766 1.2891l-0.96094 1.6602-7.0547-4.0742zm-4.8672 3.3789c0.20313-0.32812 0.62891-0.43359 0.96094-0.24609l0.38281 0.22266 1.5977 0.92187c-0.67578 1.1094-1.6719 2.7461-2.9844 4.9023-6.2773 10.309-19.215 31.555-38.32 63.129v0.003907c-0.92578-0.8125-2.1094-1.2695-3.3398-1.2891zm-34.078 76.176c1.8203 0.60156 2.3984 1.3594 2.5781 1.9336l-3.0078 1.8906c-2.3789-2.7188-5.5352-4.6367-9.043-5.4961l0.41016-3.9883c2.3789-0.48828 3.207 0.49219 3.6562 1.4453v0.007813l-0.003907-0.003906c0.023438 0.046875 0.050781 0.09375 0.078125 0.13672l0.023438 0.035156h-0.003906c0.027343 0.039062 0.054687 0.078125 0.082031 0.11328l0.019531 0.023437c0.035156 0.039063 0.074219 0.082032 0.11328 0.11719l0.015625 0.011719v0.003906c0.035156 0.03125 0.070313 0.058594 0.10938 0.085937 0.015625 0.011719 0.027344 0.019532 0.042969 0.03125 0.015625 0.011719 0.027344 0.019532 0.046875 0.03125 0.015625 0.011719 0.027344 0.011719 0.039063 0.019532 0.027343 0.015625 0.058593 0.03125 0.089843 0.046875s0.054688 0.023437 0.082031 0.035156c0.027344 0.011719 0.058594 0.019531 0.085938 0.03125 0.027344 0.007813 0.0625 0.019531 0.09375 0.027344 0.03125 0.007812 0.054688 0.011719 0.082031 0.015625l0.10156 0.015625h0.03125c2.3125 0.19141 3.0078 0.77734 3.1992 1.0195h-0.007812c0.17969 0.25 0.23438 0.57031 0.15234 0.87109-0.11719 0.67188 0.28516 1.3281 0.93359 1.5391zm-9.7617 1.0977c2.6719 0.72656 5.0859 2.1914 6.9688 4.2227l-7.9141 4.9805zm55.539-70.484-41.457 68.891h-0.003906c-0.68359-0.76562-1.5352-1.3672-2.4883-1.75-0.066406-0.67187-0.32422-1.3125-0.73828-1.8438-0.78516-0.90234-1.8438-1.5117-3.0156-1.7344 19.102-31.562 32.035-52.809 38.312-63.109l3.0156-4.957 5.457 3.1484 0.66797 0.38281h-0.003906c0.16797 0.09375 0.28516 0.25391 0.33594 0.4375 0.046876 0.18359 0.019532 0.38281-0.082031 0.54297z"/>
<text fill="#000000" font-family="Arbeit Regular, Helvetica, Arial-Unicode, Arial, Sans-serif" font-weight="bold" font-size="5.0" y="117.5" x="0.0">Created by Andi wiyanto</text><text fill="#000000" font-family="Arbeit Regular, Helvetica, Arial-Unicode, Arial, Sans-serif" font-weight="bold" font-size="5.0" y="122.5" x="0.0">from Noun Project</text></svg>